<?xml version="1.0" standalone="no"?><!DOCTYPE svg PUBLIC "-//W3C//DTD SVG 20010904//EN"
    "http://www.w3.org/TR/2001/REC-SVG-20010904/DTD/svg10.dtd">
<svg height="500.000000pt" preserveAspectRatio="xMidYMid meet" version="1.0"
    viewBox="0 0 500.000000 500.000000" width="500.000000pt" xmlns="http://www.w3.org/2000/svg">

    <g fill="#000000" stroke="none"
        transform="translate(0.000000,500.000000) scale(0.100000,-0.100000)">
        <path d="M2390 4539 c-83 -13 -199 -52 -253 -85 -134 -83 -203 -199 -258 -434
-51 -219 -109 -339 -213 -442 -124 -123 -248 -175 -494 -207 -227 -30 -311
-77 -378 -211 -39 -77 -38 -180 4 -345 75 -293 94 -461 73 -643 -26 -218 -78
-364 -220 -605 -103 -177 -137 -258 -151 -357 -47 -329 213 -749 500 -811 103
-22 192 11 310 116 120 106 195 155 283 186 163 57 320 33 489 -75 46 -29 128
-81 183 -116 234 -149 441 -177 630 -86 69 34 93 52 282 217 54 47 123 103
153 125 208 150 499 303 748 394 161 59 226 99 292 182 181 225 265 567 215
878 -9 52 -23 120 -31 150 -26 90 -100 231 -156 298 -83 98 -141 135 -287 182
-161 52 -235 95 -325 191 -115 122 -166 242 -196 454 -42 304 -51 358 -78 437
-41 120 -91 199 -186 293 -152 152 -333 245 -570 295 -111 24 -278 32 -366 19z
m355 -35 c228 -44 440 -157 589 -314 139 -149 188 -285 231 -645 21 -173 38
-243 90 -350 86 -179 216 -288 427 -356 147 -47 223 -91 290 -170 276 -324
277 -928 2 -1290 -80 -105 -138 -142 -339 -215 -355 -129 -639 -302 -963 -587
-124 -109 -195 -151 -282 -171 -93 -21 -171 -20 -264 4 -99 26 -170 62 -327
165 -208 137 -301 175 -432 175 -164 0 -282 -53 -452 -205 -134 -120 -206
-149 -312 -126 -289 63 -546 503 -479 820 19 88 54 166 140 309 35 59 79 139
99 177 105 211 151 473 127 715 -11 113 -19 156 -76 390 -49 207 -33 320 61
413 66 64 121 83 319 112 190 28 275 53 360 107 178 115 266 249 332 504 50
198 58 223 93 291 111 221 403 315 766 247z" />
    </g>
</svg>
