<?xml version="1.0" standalone="no"?><!DOCTYPE svg PUBLIC "-//W3C//DTD SVG 20010904//EN"
    "http://www.w3.org/TR/2001/REC-SVG-20010904/DTD/svg10.dtd">
<svg height="470.000000pt" preserveAspectRatio="xMidYMid meet" version="1.0"
    viewBox="0 0 531.000000 470.000000" width="531.000000pt" xmlns="http://www.w3.org/2000/svg">

    <g fill="#000000" stroke="none"
        transform="translate(0.000000,470.000000) scale(0.100000,-0.100000)">
        <path d="M2370 4485 c-30 -7 -81 -14 -113 -14 -43 -1 -59 -5 -64 -17 -4 -11
-13 -14 -30 -9 -15 3 -34 0 -47 -8 -11 -8 -39 -17 -61 -21 -22 -4 -59 -14 -83
-22 -24 -8 -48 -12 -53 -8 -5 3 -16 -2 -25 -10 -8 -9 -34 -21 -57 -27 -23 -6
-46 -15 -52 -19 -5 -4 -46 -27 -90 -50 -136 -73 -141 -76 -156 -89 -8 -6 -39
-31 -70 -54 -31 -23 -80 -61 -110 -85 -30 -23 -74 -58 -99 -76 -25 -18 -44
-38 -43 -45 2 -6 -5 -11 -15 -11 -19 0 -184 -170 -190 -195 -2 -7 -15 -21 -28
-30 -15 -10 -23 -22 -20 -31 3 -8 0 -14 -7 -14 -33 -2 -254 -403 -326 -590
-36 -95 -37 -100 -13 -101 13 0 13 -2 -5 -9 -24 -10 -34 -45 -37 -130 -1 -31
-6 -62 -10 -68 -4 -7 -3 -19 3 -26 6 -7 8 -16 4 -20 -11 -11 -13 -42 -14 -261
-2 -374 9 -499 53 -605 6 -14 12 -34 13 -45 1 -11 19 -76 39 -144 36 -119 60
-177 95 -231 9 -14 30 -54 46 -90 17 -35 45 -89 63 -120 35 -58 179 -240 192
-240 4 0 33 -31 66 -70 32 -38 64 -70 70 -70 6 0 53 -41 105 -91 87 -85 190
-169 205 -169 3 0 33 -16 65 -35 32 -19 85 -50 117 -69 31 -19 87 -43 124 -55
38 -11 80 -29 95 -40 30 -22 151 -57 248 -71 33 -5 103 -17 155 -28 171 -36
314 -46 441 -33 239 25 292 32 300 37 4 2 31 9 60 14 29 6 109 32 178 59 161
62 188 71 231 81 42 9 220 101 270 140 19 14 52 36 73 48 78 45 334 281 363
335 8 15 21 27 29 27 8 0 20 11 27 24 7 14 38 51 68 83 31 32 87 103 124 158
38 55 77 109 86 120 23 27 88 205 105 288 8 37 21 77 29 89 9 12 16 36 16 52
0 16 6 55 14 85 33 131 39 170 42 294 5 148 5 154 0 316 -4 130 -5 142 -36
301 -57 300 -197 704 -252 728 -5 2 -8 10 -8 18 0 22 -89 154 -104 154 -8 0
-16 10 -20 23 -11 43 -212 236 -364 349 -59 43 -123 91 -142 107 -40 31 -157
101 -170 101 -4 0 -32 16 -62 35 -69 46 -136 78 -223 105 -38 12 -83 26 -100
32 -91 30 -143 40 -190 34 -30 -4 -45 -3 -37 2 36 24 -587 30 -688 7z m198 -7
c131 18 274 15 406 -8 84 -15 122 -18 136 -10 25 13 30 13 24 -3 -3 -9 13 -16
55 -23 47 -8 58 -7 54 3 -4 9 0 11 11 7 9 -3 16 -12 16 -19 0 -15 157 -78 172
-69 6 4 8 3 5 -3 -7 -11 170 -100 190 -95 7 2 12 -2 11 -9 -2 -6 11 -16 27
-23 78 -29 301 -201 453 -349 86 -83 211 -243 337 -429 51 -76 111 -209 119
-268 3 -21 12 -56 21 -77 9 -21 21 -60 26 -88 5 -27 15 -72 23 -100 14 -50 41
-181 51 -245 2 -19 9 -62 14 -95 6 -33 12 -100 15 -149 3 -48 7 -90 10 -93 3
-3 1 -13 -4 -23 -5 -9 -9 -65 -9 -125 0 -66 -6 -126 -15 -154 -8 -25 -17 -77
-21 -116 -6 -70 -42 -175 -138 -405 -39 -95 -127 -239 -225 -370 -113 -151
-449 -451 -582 -519 -36 -18 -90 -48 -120 -67 -30 -18 -98 -50 -150 -69 -52
-20 -104 -42 -115 -49 -42 -26 -185 -66 -310 -86 -71 -11 -160 -26 -197 -32
-141 -23 -594 5 -726 45 -26 8 -87 27 -136 42 -84 25 -418 188 -516 250 -49
31 -59 40 -171 150 -42 41 -82 75 -88 75 -6 0 -11 3 -11 8 0 4 -36 47 -79 95
-108 119 -202 261 -302 452 -46 88 -91 176 -101 195 -10 19 -18 45 -18 58 0
13 -5 33 -11 44 -6 12 -19 54 -29 93 -10 39 -23 81 -29 93 -6 11 -11 35 -11
52 0 17 -5 41 -11 53 -7 12 -13 57 -14 102 -1 44 -5 114 -8 155 -3 41 -2 153
1 248 4 99 3 180 -2 190 -6 10 -5 17 2 20 13 4 16 38 5 45 -5 2 -3 2 4 1 12
-3 23 18 23 44 0 15 -2 15 -10 2 -17 -26 -11 -1 9 38 10 20 21 56 24 80 3 23
14 59 25 80 25 47 39 107 23 98 -6 -4 -11 -2 -11 4 0 7 7 9 15 6 12 -4 21 6
34 38 30 68 69 147 96 191 13 22 40 67 59 100 90 154 263 353 445 509 118 101
247 187 383 255 37 19 66 36 64 40 -2 3 7 7 20 7 32 2 183 76 166 81 -25 9 0
22 31 16 29 -6 31 -5 18 10 -12 15 -11 17 3 17 9 0 16 -5 16 -11 0 -6 7 -9 14
-6 8 3 88 22 178 42 89 20 165 41 169 46 3 5 13 7 22 3 10 -3 17 -1 17 5 0 8
6 8 19 -1 15 -9 39 -9 109 0z m-51 6 c-3 -3 -12 -4 -19 -1 -8 3 -5 6 6 6 11 1
17 -2 13 -5z m-682 -163 c3 -5 1 -12 -5 -16 -5 -3 -10 1 -10 9 0 18 6 21 15 7z
m-125 -70 c0 -5 -7 -12 -16 -15 -24 -9 -28 -7 -14 9 14 17 30 20 30 6z m-45
-31 c3 -5 1 -10 -4 -10 -6 0 -11 5 -11 10 0 6 2 10 4 10 3 0 8 -4 11 -10z
m-1030 -1300 c3 -5 2 -10 -4 -10 -5 0 -13 5 -16 10 -3 6 -2 10 4 10 5 0 13 -4
16 -10z m-28 -52 c-3 -7 -5 -2 -5 12 0 14 2 19 5 13 2 -7 2 -19 0 -25z" />
        <path d="M2460 4350 c-14 -4 -39 -8 -57 -9 -50 -2 -397 -105 -508 -151 -94
-40 -245 -117 -245 -126 0 -2 35 13 78 35 195 98 431 178 667 227 113 24 151
35 109 33 -10 -1 -30 -5 -44 -9z" />
        <path d="M2918 4343 c12 -2 30 -2 40 0 9 3 -1 5 -23 4 -22 0 -30 -2 -17 -4z" />
        <path d="M3195 4301 c44 -11 81 -18 83 -16 6 5 -66 23 -118 30 -27 3 -13 -3
35 -14z" />
        <path d="M2703 4273 c43 -2 110 -2 150 0 40 1 5 3 -78 3 -82 0 -115 -2 -72 -3z" />
        <path d="M2528 4263 c12 -2 30 -2 40 0 9 3 -1 5 -23 4 -22 0 -30 -2 -17 -4z" />
        <path d="M2943 4263 c9 -2 23 -2 30 0 6 3 -1 5 -18 5 -16 0 -22 -2 -12 -5z" />
        <path d="M2425 4253 c-11 -3 -96 -27 -190 -55 -93 -27 -195 -56 -225 -65 -70
-19 -301 -139 -381 -198 -34 -25 -58 -45 -54 -45 4 0 19 9 34 19 95 68 325
186 427 220 52 17 381 108 449 124 13 3 9 5 -10 5 -16 0 -39 -2 -50 -5z" />
        <path d="M3531 4186 c10 -9 69 -36 69 -32 0 6 -55 36 -66 36 -4 0 -5 -2 -3 -4z" />
        <path d="M3480 4108 c46 -22 109 -57 140 -77 69 -47 80 -53 80 -47 0 11 -170
116 -228 140 -92 39 -88 30 8 -16z" />
        <path d="M3620 4137 c8 -8 42 -29 75 -47 41 -21 52 -24 35 -10 -32 26 -130 77
-110 57z" />
        <path d="M1614 4044 c-18 -14 -18 -15 4 -4 12 6 22 13 22 15 0 8 -5 6 -26 -11z" />
        <path d="M3760 4056 c0 -3 9 -10 20 -16 11 -6 20 -8 20 -6 0 3 -9 10 -20 16
-11 6 -20 8 -20 6z" />
        <path d="M3746 3944 c22 -21 84 -75 138 -119 104 -85 141 -124 285 -305 61
-77 108 -149 141 -218 49 -100 94 -206 96 -227 0 -5 8 -26 16 -45 57 -125 66
-165 109 -474 7 -48 9 -162 6 -290 -5 -219 -16 -297 -59 -401 -11 -27 -28 -75
-38 -105 -50 -157 -155 -358 -252 -486 -24 -31 -52 -68 -63 -83 -11 -15 -54
-58 -95 -96 -41 -38 -93 -88 -116 -111 -22 -22 -74 -64 -116 -92 -42 -29 -80
-57 -83 -62 -4 -6 -17 -16 -28 -21 -12 -5 -35 -18 -52 -29 -16 -11 -50 -29
-75 -40 -25 -11 -56 -27 -70 -34 -14 -8 -57 -26 -95 -40 -39 -15 -79 -30 -90
-35 -79 -35 -140 -52 -252 -70 -70 -12 -168 -29 -218 -38 -159 -29 -403 -15
-580 32 -104 28 -130 37 -139 46 -6 5 -21 9 -33 9 -13 0 -36 6 -51 14 -15 8
-46 18 -67 22 -49 8 -105 36 -221 108 -221 139 -440 352 -589 576 -16 25 -58
82 -92 128 -35 45 -63 87 -63 92 0 5 -24 60 -54 122 -29 62 -64 136 -76 163
-54 124 -79 278 -81 505 l-1 175 -13 -125 c-9 -100 -9 -147 1 -235 17 -148 25
-178 83 -338 97 -266 200 -442 384 -657 102 -119 292 -301 362 -348 22 -15 58
-40 80 -57 58 -45 201 -128 270 -158 73 -32 152 -52 265 -67 47 -7 121 -21
165 -32 93 -23 229 -26 462 -8 116 9 180 21 298 52 83 22 166 44 186 49 77 18
359 164 459 238 122 89 279 234 280 258 0 6 8 14 18 17 9 3 25 18 34 33 10 16
38 57 64 93 116 166 203 330 254 480 10 30 29 85 43 122 14 37 31 91 36 120 6
29 15 75 21 101 9 44 18 138 25 262 3 58 -21 350 -35 415 -5 25 -11 61 -14 80
-19 149 -218 575 -337 723 -103 127 -266 295 -360 368 -99 79 -127 95 -73 43z" />
        <path d="M1385 3884 c-109 -85 -224 -202 -273 -279 -15 -22 -45 -65 -68 -95
-97 -129 -255 -443 -303 -605 -50 -169 -81 -383 -81 -556 0 -138 17 -103 23
48 3 81 10 163 16 181 5 19 15 79 21 135 7 56 22 138 35 182 28 99 101 266
142 326 17 24 43 69 58 99 15 30 37 69 49 85 12 17 37 55 55 85 65 106 173
239 254 312 112 101 153 135 174 146 10 6 15 13 12 16 -2 3 -54 -33 -114 -80z" />
        <path d="M3900 3958 c0 -2 28 -28 63 -58 43 -37 52 -42 27 -16 -32 35 -90 82
-90 74z" />
        <path d="M1485 3834 c-27 -18 -45 -34 -39 -34 12 0 94 57 94 65 0 7 -1 7 -55
-31z" />
        <path d="M4060 3815 c13 -14 26 -25 28 -25 3 0 -5 11 -18 25 -13 14 -26 25
-28 25 -3 0 5 -11 18 -25z" />
        <path d="M1303 3683 c-98 -97 -177 -201 -243 -318 -71 -126 -91 -167 -88 -177
2 -6 16 13 31 43 63 127 143 259 156 259 8 0 133 138 239 263 8 9 13 20 9 23
-3 3 -50 -38 -104 -93z" />
        <path d="M4190 3682 c6 -13 14 -21 18 -18 3 4 -2 14 -12 24 -18 16 -18 16 -6
-6z" />
        <path d="M4360 3435 c0 -3 22 -49 49 -103 49 -100 80 -182 131 -357 16 -55 29
-91 29 -79 2 40 -70 284 -103 354 -69 142 -106 207 -106 185z" />
        <path d="M907 3053 c-20 -33 -87 -271 -91 -323 -5 -63 -5 -62 14 28 11 52 35
140 54 195 30 90 38 126 23 100z" />
        <path d="M801 2644 c0 -11 3 -14 6 -6 3 7 2 16 -1 19 -3 4 -6 -2 -5 -13z" />
        <path d="M790 2574 c0 -8 5 -12 10 -9 6 4 8 11 5 16 -9 14 -15 11 -15 -7z" />
        <path d="M4627 2370 c-17 -369 -108 -726 -239 -940 -175 -287 -383 -516 -638
-703 -21 -15 -20 -15 8 1 147 84 382 299 482 441 120 169 169 248 220 351 59
120 72 156 95 260 10 41 26 105 36 142 10 36 19 78 19 93 0 15 4 55 10 89 16
104 30 349 22 386 -6 25 -10 -8 -15 -120z" />
        <path d="M681 2074 c0 -11 3 -14 6 -6 3 7 2 16 -1 19 -3 4 -6 -2 -5 -13z" />
        <path d="M760 1785 c0 -20 41 -118 94 -223 94 -188 115 -226 156 -277 22 -27
55 -70 72 -94 110 -150 319 -359 433 -434 22 -14 51 -35 65 -46 14 -11 28 -21
32 -21 4 0 29 -13 56 -29 27 -16 60 -32 73 -36 22 -7 112 -48 255 -116 33 -16
67 -29 75 -29 8 0 43 -9 79 -20 126 -39 306 -56 545 -53 139 1 370 28 455 52
36 11 90 24 120 31 63 14 176 52 223 76 57 29 198 117 193 121 -2 2 -44 -16
-92 -40 -283 -141 -599 -209 -974 -210 -272 0 -376 19 -656 117 -298 104 -423
184 -675 436 -199 198 -322 374 -446 635 -24 50 -43 95 -43 100 0 6 -9 24 -20
40 -11 17 -20 26 -20 20z" />
    </g>
</svg>
